HIERARCHY
ROOT pelvis
{
  OFFSET 0 100 0
  CHANNELS 6 Xposition Yposition Zposition Zrotation Xrotation Yrotation
  JOINT pelvis_right_femur
  {
    OFFSET -10.78128 -3.44521 -0.5502486
    CHANNELS 3 Zrotation Xrotation Yrotation
    JOINT right_femur_tibia
    {
      OFFSET -0.8047443 -44.0398 -0.1307829
      CHANNELS 3 Zrotation Xrotation Yrotation
      JOINT right_tibia_foot
      {
        OFFSET 3.006224 -47.83518 -5
        CHANNELS 3 Zrotation Xrotation Yrotation
        End Site
        {
          OFFSET 0 -5 15
        }
      }
    }
  }
  JOINT pelvis_left_femur
  {
    OFFSET 10.78128 -3.44521 -0.5502486
    CHANNELS 3 Zrotation Xrotation Yrotation
    JOINT left_femur_tibia
    {
      OFFSET 0.8047443 -44.0398 -0.1307829
      CHANNELS 3 Zrotation Xrotation Yrotation
      JOINT left_tibia_foot
      {
        OFFSET -4.370144 -48.10324 -4.275266
        CHANNELS 3 Zrotation Xrotation Yrotation
        End Site
        {
          OFFSET 0 -5 15
        }
      }
    }
  }
  JOINT pelvis_spine1
  {
    OFFSET 0 6.468898 -3.129235
    CHANNELS 3 Zrotation Xrotation Yrotation
    JOINT spine1
    {
      OFFSET 0 23.15396 4.99043
      CHANNELS 3 Zrotation Xrotation Yrotation
      JOINT spine2
      {
        OFFSET 0 20.79997 -5.064912
        CHANNELS 3 Zrotation Xrotation Yrotation
        JOINT neck
        {
          OFFSET 0 14.38658 9.616178
          CHANNELS 3 Zrotation Xrotation Yrotation
          End Site
          {
            OFFSET 0 20 0
          }
        }
      }
      JOINT right_manubrium
      {
        OFFSET -5.722621 16.35077 3.967754
        CHANNELS 3 Zrotation Xrotation Yrotation
        JOINT right_clavicle
        {
          OFFSET -13.16364 1.694482 -4.693211
          CHANNELS 3 Zrotation Xrotation Yrotation
          JOINT right_humerus
          {
            OFFSET -28.5034 -0.3100689 -2.792744
            CHANNELS 3 Zrotation Xrotation Yrotation
            JOINT right_radius
            {
              OFFSET -25.15693 0.02248979 -1.271978
              CHANNELS 3 Zrotation Xrotation Yrotation
              End Site
              {
                OFFSET -15 0 0
              }
            }
          }
        }
      }
      JOINT left_manubrium
      {
        OFFSET 5.722621 16.35077 3.967754
        CHANNELS 3 Zrotation Xrotation Yrotation
        JOINT left_clavicle
        {
          OFFSET 13.16364 1.694482 -4.693211
          CHANNELS 3 Zrotation Xrotation Yrotation
          JOINT left_humerus
          {
            OFFSET 29.39168 -1.063119 -2.237045
            CHANNELS 3 Zrotation Xrotation Yrotation
            JOINT left_radius
            {
              OFFSET 24.59957 -0.9528479 0.9047498
              CHANNELS 3 Zrotation Xrotation Yrotation
              End Site
              {
                OFFSET 15 -0 -0
              }
            }
          }
        }
      }
    }
  }
}
MOTION
Frames: 13
Frame Time: 0.0416666666667
0 103.5113 0 1.509287 -1.244179 -0.1741812 3.605897 -15.09462 11.33048 -0 38.48932 -0 -4.364761 -18.42702 -3.173642 -7.65812 10.30868 -23.07574 -0 4.934186 -0 20.39546 -8.188916 29.79956 -2.561853 -1.884433 4.367693 2.817871 10.26153 -7.423429 1.639028 21.25837 6.613651 2.998498 -25.76044 9.91534 5.729408 -18.6197 11.34198 86.85737 36.4881 -19.04395 -0 0 13.65063 -6.5465 7.809676 4.321765 5.813674 -20.0783 -2.016869 -90.93636 21.64313 18.96241 0 0 -16.84987 13.61707 12.70509 -2.297073
0.5016525 103.6597 1.813183 1.303089 -0.2241269 -0.3817508 4.350856 -17.4987 11.753 -0 37.46814 -0 -4.158591 -17.93092 -3.076502 -7.760723 10.43844 -23.1472 -0 5.127314 -0 20.29716 -9.200875 30.0515 -2.660974 -1.796693 4.228486 3.028421 10.20473 -7.529194 1.648955 21.22826 6.635553 2.902462 -25.9638 10.04718 5.714295 -18.55583 11.36227 86.96291 36.68366 -19.19618 -0 0 13.30693 -6.05692 7.668836 4.274364 5.693014 -19.98897 -2.130553 -90.45076 21.62652 18.41299 0 0 -17.82071 13.81817 12.25556 -2.552458
0.9622115 103.0819 4.243869 1.013441 -0.8198295 -0.3987266 3.261807 -20.8178 6.814986 -0 29.97567 -0 -5.819097 -12.29395 -2.5914 -7.079688 10.80329 -20.01805 -0 3.654417 -0 14.91705 -14.02405 25.90743 -2.564093 -1.616168 4.167689 2.988627 10.29405 -7.445548 1.550646 21.25995 6.686838 2.987982 -25.77095 9.85688 5.694695 -18.34624 11.47057 87.12184 36.87041 -19.29912 -0 0 12.66938 -6.63838 7.837 4.705423 5.600481 -20.01154 -2.37049 -90.00708 21.39139 18.08679 0 0 -18.31294 13.75475 11.73577 -2.45509
1.354107 102.5281 6.771604 0.7496732 0.3226625 -0.3851919 3.947312 -23.87269 6.827477 -0 27.91144 -0 -5.679202 -11.12711 -2.409917 -7.102585 11.20772 -19.78896 -0 4.105379 -0 13.95689 -15.70916 25.55819 -2.551109 -1.512657 4.084361 3.048275 10.30495 -7.456681 1.502099 21.25718 6.735248 2.998293 -25.74477 9.819646 5.670295 -18.22004 11.52744 87.26119 37.02804 -19.44614 -0 0 12.21637 -6.769806 7.894421 4.897233 5.542835 -20.02023 -2.513579 -89.596 21.25571 17.70048 0 0 -18.98274 13.81043 11.33155 -2.504364
1.67307 101.9496 9.517613 0.3883233 1.795245 -0.2670814 5.091932 -28.10073 6.831089 -0 24.85846 -0 -5.51404 -9.161581 -1.82545 -7.159661 11.76888 -19.40983 -0 5.160296 -0 13.23243 -17.38635 25.15679 -2.588193 -1.450283 3.983295 3.167606 10.26142 -7.518174 1.478902 21.23574 6.792795 2.968618 -25.81552 9.877212 5.634415 -18.13815 11.55572 87.39619 37.21064 -19.61279 -0 0 11.83847 -6.650354 7.895128 4.964654 5.512343 -20.0243 -2.600297 -89.16887 21.14803 17.24686 0 0 -19.82647 13.97504 10.97003 -2.683364
1.918895 101.3082 12.6147 -0.006589084 2.96185 -0.0111151 5.997722 -31.93095 6.112923 -0 21.2905 -0 -5.794676 -6.53953 -0.9736113 -7.115412 12.5176 -18.79501 -0 6.614934 -0 11.60415 -19.28433 24.14539 -2.621128 -1.397632 3.884046 3.282321 10.20942 -7.57976 1.451875 21.21157 6.861591 2.94472 -25.87773 9.936632 5.588903 -18.05751 11.58275 87.54283 37.40716 -19.79106 -0 0 11.44715 -6.564584 7.917235 5.042825 5.50396 -20.04865 -2.675918 -88.73053 21.02199 16.78211 0 0 -20.72437 14.15455 10.61464 -2.870575
2.095502 100.6495 16.13448 -0.4770469 3.98068 0.3963555 6.709074 -35.03143 5.09665 -0 17.76167 -0 -6.412332 -3.882199 -0.0892511 -6.94431 13.3734 -18.13718 -0 8.450676 -0 9.007746 -21.34783 22.59637 -2.642786 -1.351103 3.788157 3.384259 10.15591 -7.636614 1.417152 21.18567 6.94259 2.932781 -25.9177 9.986156 5.533543 -17.97179 11.61189 87.7093 37.61294 -19.98802 -0 0 11.0274 -6.550073 7.971696 5.147261 5.518831 -20.09982 -2.747634 -88.2783 20.87006 16.30796 0 0 -21.66966 14.33685 10.25889 -3.050414
2.218225 99.97108 20.22257 -0.9665526 4.603933 0.9644312 7.018888 -37.01996 3.601235 -0 14.11721 -0 -7.202298 -1.138275 0.6335157 -6.58577 14.35193 -17.04625 -0 10.74152 -0 5.348353 -23.2353 20.09702 -2.65239 -1.312537 3.697586 3.470716 10.10328 -7.688498 1.375731 21.15781 7.033871 2.933183 -25.93461 10.02462 5.469343 -17.88301 11.64223 87.89631 37.81927 -20.2051 -0 0 10.58808 -6.607413 8.057371 5.273452 5.557937 -20.17928 -2.814605 -87.8223 20.69565 15.83329 0 0 -22.64434 14.51644 9.911293 -3.217295
2.311335 99.30801 25.08264 -1.398034 4.685758 1.684068 6.96416 -37.48749 1.843999 -0 10.69008 -0 -7.858207 1.518308 0.9741938 -6.054529 15.46267 -15.30685 -0 13.91266 -0 1.009782 -24.19706 16.64031 -2.646895 -1.279741 3.614954 3.532305 10.05852 -7.730718 1.32722 21.13032 7.133469 2.950653 -25.9175 10.04429 5.398114 -17.78934 11.67353 88.10557 38.0133 -20.44039 -0 0 10.13445 -6.759197 8.176145 5.423907 5.622161 -20.28887 -2.880508 -87.37323 20.49474 15.36796 0 0 -23.60778 14.68538 9.579575 -3.365592
2.404846 98.77549 30.92308 -1.645652 4.087842 2.483962 6.733238 -35.72649 0.4059599 -0 8.432104 -0 -7.94867 3.571635 0.5668046 -5.428985 16.50109 -12.79734 -0 18.75147 -0 -2.887135 -22.98588 12.75324 -2.617487 -1.243566 3.544237 3.547204 10.03852 -7.751431 1.268472 21.10997 7.238093 2.997717 -25.83584 10.02324 5.324542 -17.6807 11.70745 88.34129 38.16721 -20.69052 -0 0 9.66514 -7.070157 8.33642 5.614246 5.71137 -20.43195 -2.958337 -86.94696 20.25538 14.92773 0 0 -24.47166 14.82274 9.273104 -3.478408
2.521007 98.6574 37.65969 -1.760932 3.172101 3.149872 6.938362 -31.4871 0.6128025 -0 9.141125 -0 -7.296121 3.742872 -0.7929079 -4.766183 16.39708 -10.19354 -0 26.29343 -0 -4.307071 -18.27372 9.878207 -2.546547 -1.186816 3.49274 3.480996 10.07519 -7.731459 1.194532 21.10904 7.335915 3.092472 -25.63825 9.9189 5.262368 -17.53757 11.74951 88.59993 38.21735 -20.94723 -0 0 9.183324 -7.646185 8.550659 5.874596 5.814428 -20.6062 -3.073448 -86.58417 19.97809 14.55722 0 0 -25.05203 14.8667 9.012635 -3.494711
2.655951 99.26218 44.57853 -2.312054 2.927109 3.334228 8.177429 -26.4804 2.745147 -0 12.6995 -0 -7.309844 1.321596 -1.842334 -3.823573 13.33294 -9.268197 -0 36.99881 -0 -3.492505 -10.95319 8.669718 -2.423671 -1.098809 3.47152 3.323138 10.19339 -7.661326 1.109454 21.13638 7.397451 3.230887 -25.30883 9.700964 5.236248 -17.35585 11.80606 88.8337 38.085 -21.17404 -0 0 8.742898 -8.503169 8.806768 6.214704 5.890561 -20.77808 -3.24013 -86.36593 19.72871 14.3506 0 0 -25.11789 14.71425 8.835299 -3.301035
2.779588 100.5298 51.15055 -3.105628 2.516942 2.889546 9.558794 -22.11036 4.183251 -0 14.74902 -0 -8.987644 -1.17332 -1.611447 -2.81484 8.630168 -9.549952 -0 50.19634 -0 -4.037107 -5.477732 8.516808 -2.284263 -0.9979464 3.489616 3.123456 10.35953 -7.557165 1.037932 21.18638 7.397277 3.367098 -24.93809 9.424244 5.256281 -17.18782 11.86537 88.94639 37.8045 -21.27416 -0 0 8.477025 -9.402495 9.031509 6.559461 5.898775 -20.88077 -3.413867 -86.35614 19.59827 14.37946 0 0 -24.62999 14.37336 8.775514 -2.909369
